<?xml version="1.0" standalone="no"?>
<!DOCTYPE svg PUBLIC "-//W3C//DTD SVG 20010904//EN"
 "http://www.w3.org/TR/2001/REC-SVG-20010904/DTD/svg10.dtd">
<svg version="1.0" xmlns="http://www.w3.org/2000/svg"
 width="818.000000pt" height="818.000000pt" viewBox="0 0 818.000000 818.000000"
 preserveAspectRatio="xMidYMid meet">
<metadata>
Created by potrace 1.14, written by Peter Selinger 2001-2017
</metadata>
<g transform="translate(0.000000,818.000000) scale(0.100000,-0.100000)"
fill="#000000" stroke="none">
<path d="M3386 7938 c-91 -134 -169 -247 -173 -253 -5 -5 -19 -27 -33 -47 -14
-21 -28 -38 -32 -38 -4 0 -58 24 -120 54 -205 97 -342 163 -427 205 -46 23
-86 39 -88 37 -5 -5 -172 -474 -210 -587 l-24 -76 -47 8 c-26 5 -59 11 -74 14
-16 3 -39 7 -53 9 -23 5 -116 22 -167 31 -13 3 -84 16 -158 30 -200 38 -200
38 -201 23 0 -7 -2 -24 -4 -38 -1 -14 -6 -65 -9 -115 -4 -49 -9 -110 -11 -135
-2 -25 -7 -88 -11 -140 -3 -52 -8 -113 -9 -135 -2 -22 -4 -59 -4 -82 -1 -48
-1 -48 -146 -58 -49 -3 -108 -8 -130 -10 -22 -3 -76 -7 -120 -10 -44 -2 -107
-7 -140 -10 -33 -3 -84 -7 -114 -10 -29 -2 -55 -6 -58 -8 -2 -3 3 -42 12 -88
9 -46 18 -95 20 -109 2 -14 8 -50 14 -80 18 -92 21 -103 32 -165 13 -73 15
-81 32 -174 l14 -73 -31 -13 c-17 -7 -116 -43 -221 -80 -345 -121 -390 -137
-402 -144 -9 -4 0 -31 29 -91 22 -47 63 -132 90 -190 126 -262 168 -352 168
-358 -1 -4 -49 -40 -108 -80 -59 -41 -189 -130 -290 -199 l-182 -125 47 -56
c27 -31 57 -66 68 -78 36 -38 330 -385 336 -397 4 -7 -47 -75 -118 -157 -69
-80 -159 -185 -201 -235 -42 -49 -79 -92 -82 -95 -3 -3 -15 -17 -28 -31 l-23
-26 218 -150 c120 -83 251 -172 290 -199 40 -27 73 -52 73 -55 0 -7 -64 -143
-181 -386 -34 -71 -73 -153 -86 -183 -14 -30 -27 -58 -30 -63 -2 -4 2 -9 9
-12 7 -2 148 -51 314 -109 165 -58 305 -106 310 -106 23 0 31 -22 23 -58 -4
-20 -11 -57 -14 -82 -4 -24 -8 -47 -10 -50 -2 -3 -6 -21 -9 -40 -14 -85 -26
-154 -51 -285 -40 -207 -41 -196 25 -200 30 -2 80 -7 110 -10 30 -2 95 -7 143
-10 48 -3 104 -8 125 -10 20 -2 82 -6 137 -10 138 -8 131 -5 134 -74 1 -33 4
-70 6 -83 4 -27 16 -180 20 -253 3 -45 10 -135 20 -254 3 -24 6 -46 9 -48 3
-3 74 8 201 33 11 2 45 8 75 14 30 6 66 12 80 15 14 3 39 7 55 10 17 3 44 8
60 11 17 3 37 7 45 8 8 1 29 6 45 9 17 4 44 9 60 12 17 3 39 7 50 9 18 4 29
-20 98 -218 156 -440 158 -445 176 -438 9 3 61 28 116 55 55 27 127 62 160 77
33 15 110 52 170 81 131 63 178 81 185 71 4 -4 46 -65 94 -137 48 -72 96 -141
106 -155 10 -14 57 -82 105 -153 l87 -127 61 52 c34 29 64 55 67 58 3 3 34 30
70 60 36 30 67 57 70 60 3 3 35 31 73 63 37 31 96 82 131 112 l64 56 74 -61
c40 -34 89 -76 108 -93 19 -18 62 -54 95 -82 33 -27 62 -52 65 -55 3 -3 48
-42 102 -88 l96 -82 40 57 c21 32 96 141 166 242 69 100 126 187 126 192 0 5
3 9 8 9 4 0 18 18 32 40 13 22 28 40 32 40 4 0 87 -38 184 -85 97 -47 178 -85
180 -85 2 0 63 -29 135 -65 73 -36 133 -64 135 -62 4 4 87 234 175 483 l63
181 51 -9 c27 -5 95 -17 150 -28 55 -10 114 -21 130 -24 52 -10 139 -26 165
-31 95 -19 194 -34 198 -30 3 3 6 24 8 47 1 24 5 77 9 118 3 41 8 109 11 150
3 41 7 93 9 115 2 22 7 83 11 135 8 119 8 118 20 129 5 5 54 12 109 15 55 4
123 8 150 11 28 2 83 6 123 9 39 3 102 9 140 12 37 3 87 7 112 9 25 2 49 4 53
4 9 1 5 29 -17 144 -8 40 -17 88 -20 107 -3 19 -8 46 -11 60 -7 32 -23 116
-29 155 -3 17 -10 55 -16 85 -6 30 -13 71 -16 90 -3 19 -7 40 -9 46 -1 6 11
16 28 22 181 62 615 216 624 221 9 4 -1 33 -33 101 -25 52 -59 122 -74 155
-15 33 -62 131 -104 218 -42 87 -76 162 -76 166 0 4 56 45 125 91 69 46 130
89 136 97 6 7 16 13 21 13 5 0 16 6 23 13 7 6 72 52 144 100 l130 89 -86 101
c-48 56 -152 177 -231 269 l-144 168 143 167 c79 93 146 170 149 173 3 3 42
48 88 101 l82 97 -252 173 c-139 96 -269 185 -290 199 -21 13 -38 28 -38 31 0
4 30 69 66 146 36 76 89 185 116 243 116 242 117 245 105 251 -7 4 -142 52
-302 108 -319 112 -358 128 -351 139 2 4 7 26 10 48 4 22 9 51 12 64 7 35 22
118 29 160 3 19 10 53 15 75 5 22 11 56 14 75 3 19 8 46 11 60 14 67 34 194
32 197 -5 5 -68 12 -167 18 -52 4 -111 8 -130 10 -19 2 -80 6 -135 10 -55 4
-113 8 -130 10 -16 2 -54 5 -82 6 -62 3 -59 -3 -68 139 -3 58 -8 119 -10 135
-2 17 -7 73 -10 125 -3 52 -8 115 -11 140 -2 25 -6 71 -8 103 -2 32 -6 60 -8
63 -3 2 -65 -7 -139 -21 -74 -13 -147 -27 -164 -30 -127 -23 -270 -50 -320
-60 -33 -7 -63 -10 -67 -6 -7 6 -48 117 -152 416 -37 105 -72 202 -78 217
l-10 27 -51 -23 c-29 -13 -113 -53 -187 -89 -268 -128 -393 -187 -399 -187 -3
0 -39 48 -79 108 -247 363 -319 465 -327 463 -8 -2 -319 -263 -335 -281 -3 -3
-49 -43 -103 -89 l-99 -82 -66 58 c-37 32 -69 60 -72 63 -3 3 -66 57 -140 119
-74 63 -163 139 -196 168 l-61 53 -167 -242z"/>
</g>
</svg>
